<?xml version="1.0" encoding="UTF-8"?>
<svg width="752pt" height="752pt" version="1.1" viewBox="0 0 752 752" xmlns="http://www.w3.org/2000/svg">
 <path d="m216.03 583.19c6.6367 2.6484 13.633 4.2969 20.758 4.8945 1.4805 0 2.9219 0.15625 4.3594 0.15625 33.961 0 58.902-29.598 81.004-55.883 17.758-21.094 36.129-42.898 53.852-42.898 17.719 0 36.07 21.805 53.852 42.898 23.027 27.367 48.918 58.328 85.383 55.727h-0.003906c7.1094-0.59766 14.094-2.2461 20.719-4.8945 15.75-6.7188 29.133-17.992 38.43-32.371 9.2969-14.383 14.082-31.211 13.742-48.332v-106.75c-0.035156-30.082-12-58.918-33.27-80.191-21.273-21.27-50.109-33.234-80.191-33.27h-83.863v-34.535c0-3.9219 1.5586-7.6875 4.3359-10.465 2.7734-2.7734 6.5391-4.332 10.465-4.332 11.77-0.011718 23.059-4.6914 31.383-13.016s13.004-19.613 13.016-31.383v-9.8672c0-5.2852-2.8242-10.172-7.4023-12.816s-10.219-2.6445-14.797 0c-4.582 2.6445-7.4023 7.5312-7.4023 12.816v9.8672c0 3.9258-1.5586 7.6875-4.332 10.465-2.7773 2.7734-6.543 4.332-10.465 4.332-11.773 0.011718-23.059 4.6914-31.383 13.016s-13.008 19.613-13.016 31.383v34.535h-83.863c-30.082 0.035156-58.922 12-80.191 33.27-21.27 21.273-33.234 50.109-33.273 80.191v106.75c-0.33984 17.117 4.4453 33.945 13.738 48.328 9.293 14.379 22.668 25.652 38.418 32.375zm268.5-217.05c5.2344 0 10.25 2.0781 13.953 5.7773 3.6992 3.7031 5.7773 8.7188 5.7773 13.953 0 5.2344-2.0781 10.254-5.7773 13.953-3.7031 3.6992-8.7188 5.7812-13.953 5.7812s-10.254-2.082-13.953-5.7812c-3.7031-3.6992-5.7812-8.7188-5.7812-13.953 0-5.2344 2.0781-10.25 5.7812-13.953 3.6992-3.6992 8.7188-5.7773 13.953-5.7773zm-39.465 39.465c5.2305 0 10.25 2.0781 13.953 5.7773 3.6992 3.7031 5.7773 8.7188 5.7773 13.953s-2.0781 10.254-5.7773 13.953c-3.7031 3.7031-8.7227 5.7812-13.953 5.7812-5.2344 0-10.254-2.0781-13.953-5.7812-3.7031-3.6992-5.7812-8.7188-5.7812-13.953s2.0781-10.25 5.7812-13.953c3.6992-3.6992 8.7188-5.7773 13.953-5.7773zm-197.32-14.801h14.801l-0.003907-14.801c0-5.2852 2.8203-10.172 7.3984-12.816 4.582-2.6406 10.223-2.6406 14.801 0 4.5781 2.6445 7.3984 7.5312 7.3984 12.816v14.801h14.801c5.2891 0 10.172 2.8203 12.816 7.3984 2.6445 4.582 2.6445 10.223 0 14.801-2.6445 4.5781-7.5273 7.3984-12.816 7.3984h-14.801v14.801c0 5.2891-2.8203 10.172-7.3984 12.816s-10.219 2.6445-14.801 0c-4.5781-2.6445-7.3984-7.5273-7.3984-12.816v-14.801h-14.801c-5.2852 0-10.172-2.8203-12.816-7.3984-2.6406-4.5781-2.6406-10.219 0-14.801 2.6445-4.5781 7.5312-7.3984 12.816-7.3984z"/>
</svg>
