<?xml version="1.0" encoding="UTF-8"?>
<svg width="752pt" height="752pt" version="1.1" viewBox="0 0 752 752" xmlns="http://www.w3.org/2000/svg">
 <g>
  <path d="m408.56 566.97c14.051-1.7188 24.973-13.73 24.973-28.238v-45.07c0-19.086 8.168-37.605 22.414-50.82 26.523-24.605 39.875-59.48 36.633-95.672-5.0156-55.996-51.133-101.14-107.27-105.02-5.5234-0.38281-10.906-0.38281-16.43 0-56.145 3.875-102.26 49.02-107.27 105.01-3.2422 36.199 10.109 71.07 36.633 95.676 14.246 13.215 22.414 31.734 22.414 50.82v45.07c0 14.512 10.922 26.52 24.973 28.238 4.3398 11.711 16.391 22.145 31.461 22.145 15.078 0 27.129-10.434 31.469-22.145zm6.0312-66.203v7.1406h-74.992v-7.1406zm-57.008-116.42h-11.645c-6.4219 0-11.645-5.2266-11.645-11.645s5.2266-11.645 11.645-11.645 11.645 5.2266 11.645 11.645zm9.4727 9.4688h20.074v92.742h-20.074zm-27.457 128.3h74.988v7.1406h-74.988zm-28.473-93.164c-22.191-20.586-33.363-49.781-30.645-80.098 4.1914-46.816 42.754-84.562 89.711-87.809 2.3203-0.16016 4.6211-0.20703 6.9062-0.20703 2.2891 0 4.5859 0.046875 6.9102 0.20703 46.949 3.2422 85.516 40.988 89.707 87.812 2.7188 30.309-8.4531 59.504-30.645 80.098-16.328 15.141-26.289 35.832-28.098 57.605h-18.371v-92.746h11.645c11.645 0 21.117-9.4727 21.117-21.117s-9.4727-21.117-21.117-21.117c-11.645 0-21.117 9.4727-21.117 21.117v11.645h-20.074v-11.645c0-11.645-9.4727-21.117-21.117-21.117s-21.117 9.4727-21.117 21.117 9.4727 21.117 21.117 21.117h11.645v92.742h-18.359c-1.8086-21.773-11.773-42.461-28.098-57.605zm85.477-44.605v-11.645c0-6.4219 5.2266-11.645 11.645-11.645 6.418 0 11.645 5.2266 11.645 11.645s-5.2266 11.645-11.645 11.645zm-55.691 159.12h72.367c-1.6484 2.8359-4.6836 4.7734-8.1914 4.7734h-4.2578c-0.73828 0-1.4531 0.10547-2.1445 0.26562h-43.172c-0.69141-0.16016-1.4062-0.26562-2.1445-0.26562h-4.2578c-3.5156 0-6.5508-1.9375-8.1992-4.7734zm36.18 26.703c-5.4414 0-10.117-3.6094-12.52-7.457h25.039c-2.3984 3.8516-7.0781 7.457-12.52 7.457z"/>
  <path d="m369.59 170.4v32.906c0 4.1289 3.3828 7.5117 7.5117 7.5117s7.5117-3.3828 7.5117-7.5117l-0.003906-32.906c-0.003907-4.1328-3.3789-7.5117-7.5117-7.5117-4.1289 0-7.5078 3.3789-7.5078 7.5117z"/>
  <path d="m464.11 239.79c3.3438 2.4297 8.0586 1.6797 10.488-1.6641l19.34-26.621c2.4297-3.3438 1.6797-8.0586-1.6641-10.488-3.3398-2.4297-8.0586-1.6797-10.488 1.6641l-19.34 26.621c-2.4219 3.3438-1.6719 8.0625 1.6641 10.488z"/>
  <path d="m526.93 319.21 31.293-10.168c3.9258-1.2773 6.0938-5.5352 4.8203-9.4609s-5.5352-6.0938-9.4609-4.8203l-31.293 10.168c-3.9258 1.2734-6.0938 5.5352-4.8203 9.4609 1.2695 3.9258 5.5273 6.0938 9.4609 4.8203z"/>
  <path d="m521.61 415.56 31.293 10.168c3.9258 1.2734 8.1836-0.89453 9.4609-4.8203 1.2734-3.9258-0.89453-8.1836-4.8203-9.4609l-31.293-10.168c-3.9258-1.2734-8.1836 0.89453-9.4609 4.8203-1.2734 3.9258 0.89453 8.1836 4.8203 9.4609z"/>
  <path d="m480.02 517c2.4297 3.3398 7.1445 4.0859 10.488 1.6641 3.3438-2.4297 4.0859-7.1445 1.6641-10.488l-19.34-26.621c-2.4297-3.3398-7.1445-4.0859-10.488-1.6641-3.3398 2.4297-4.0859 7.1445-1.6641 10.488z"/>
  <path d="m259.73 517.38c3.3438 2.4297 8.0586 1.6797 10.488-1.6641l19.34-26.621c2.4297-3.3438 1.6797-8.0586-1.6641-10.488s-8.0586-1.6797-10.488 1.6641l-19.34 26.621c-2.4219 3.3398-1.6797 8.0586 1.6641 10.488z"/>
  <path d="m225.07 399.2-31.293 10.168c-3.9258 1.2734-6.0938 5.5352-4.8203 9.4609 1.2773 3.9258 5.5352 6.0938 9.4609 4.8203l31.293-10.168c3.9258-1.2734 6.0938-5.5352 4.8203-9.4609s-5.5312-6.0977-9.4609-4.8203z"/>
  <path d="m230.39 302.85-31.293-10.168c-3.9258-1.2734-8.1836 0.89453-9.4609 4.8203-1.2773 3.9258 0.89453 8.1836 4.8203 9.4609l31.293 10.168c3.9258 1.2734 8.1836-0.89453 9.4609-4.8203 1.2734-3.9297-0.89453-8.1875-4.8203-9.4609z"/>
  <path d="m261.5 199.74c-3.3438 2.4297-4.0859 7.1445-1.6641 10.488l19.34 26.621c2.4297 3.3398 7.1445 4.0859 10.488 1.6641 3.3438-2.4297 4.0859-7.1445 1.6641-10.488l-19.34-26.621c-2.4297-3.3398-7.1484-4.0859-10.488-1.6641z"/>
 </g>
</svg>
